<svg width="181" height="60" viewBox="0 0 181 60" fill="none" xmlns="http://www.w3.org/2000/svg">
<g clip-path="url(#clip0_43_30061)">
<g clip-path="url(#clip1_43_30061)">
<path d="M180.842 1.82983H0.0224609V58.17H180.842V1.82983Z" fill="white"/>
<path d="M56.002 18.1555C57.263 17.9528 59.1545 17.7952 61.2487 17.7952C63.3429 17.7952 65.6397 18.178 66.9007 19.1688C67.9366 20.0019 68.4995 21.2179 68.4995 22.8167C68.4995 24.4155 66.9233 26.5772 65.4145 27.1176V27.1852C66.6305 27.6806 67.3061 28.8515 67.7339 30.4503C68.2743 32.4094 68.8148 34.6837 69.1525 35.3592H65.1218C64.8291 34.8638 64.4238 33.4452 63.9058 31.306C63.433 29.1217 62.6899 28.5363 61.0911 28.5138H59.8976V35.3818H55.9795V18.178L56.002 18.1555ZM59.9201 25.654H61.4739C63.433 25.654 64.6039 24.6632 64.6039 23.1545C64.6039 21.6458 63.523 20.745 61.6991 20.7225C60.7308 20.7225 60.1904 20.7901 59.9201 20.8576V25.6765V25.654Z" fill="black"/>
<path d="M80.1641 23.0868L81.3801 21.3079L82.7537 22.2761L81.5828 24.01C82.9339 25.181 83.6995 26.8923 83.6995 29.009C83.6995 33.5126 80.3893 35.6519 77.1017 35.6519C73.8141 35.6519 74.985 35.4492 74.1068 34.9763L72.8458 36.8228L71.5623 35.787L72.7107 34.0981C71.3371 32.9947 70.5039 31.2834 70.5039 29.0541C70.5039 25.0684 73.2061 22.4338 77.1017 22.4338C80.9973 22.4338 79.3085 22.6364 80.1867 23.1093L80.1641 23.0868ZM78.4753 25.6764C78.0925 25.3836 77.6421 25.2035 77.0792 25.2035C75.03 25.2035 74.2644 27.2526 74.2644 29.009C74.2644 30.7654 74.3995 30.4502 74.7373 31.0357H74.7823C74.7823 31.0582 78.4753 25.6764 78.4753 25.6764ZM75.7506 32.3642C76.1109 32.702 76.5838 32.8371 77.0792 32.8371C78.8356 32.8371 79.8939 31.3284 79.8939 29.1216C79.8939 26.9149 79.7813 27.748 79.5111 27.1626H79.4436C79.4436 27.14 75.7731 32.3867 75.7731 32.3867L75.7506 32.3642Z" fill="black"/>
<path d="M98.494 16.9844V31.5761C98.494 32.9948 98.539 34.5035 98.6066 35.3592H95.1163L94.9361 33.4902H94.8911C94.0804 34.9088 92.5717 35.6294 90.9279 35.6294C87.933 35.6294 85.5236 33.0623 85.5236 29.1442C85.5011 24.8657 88.1582 22.4113 91.1981 22.4113C94.2381 22.4113 93.9678 22.9517 94.5308 23.8299H94.5758V16.9619H98.5165L98.494 16.9844ZM94.5533 28.0633C94.5533 27.8606 94.5308 27.5679 94.5083 27.3652C94.2831 26.3069 93.4274 25.4287 92.2114 25.4287C90.4325 25.4287 89.4868 27.0275 89.4868 29.0316C89.4868 31.0357 90.5451 32.5219 92.1889 32.5219C93.8327 32.5219 94.2381 31.7563 94.4632 30.6304C94.5308 30.3376 94.5758 30.0674 94.5758 29.7296V28.0633H94.5533Z" fill="black"/>
<path d="M104.664 30.2927C104.799 31.914 106.398 32.7021 108.244 32.7021C110.091 32.7021 110.676 32.522 111.734 32.1842L112.252 34.8413C110.969 35.3592 109.37 35.6069 107.681 35.6069C103.38 35.6069 100.926 33.13 100.926 29.1668C100.926 25.2036 102.907 22.4114 107.321 22.4114C111.734 22.4114 112.973 25.5864 112.973 28.7164C112.973 31.8464 112.905 29.9774 112.838 30.2702H104.686L104.664 30.2927ZM109.302 27.5905C109.302 26.6223 108.897 25.0235 107.073 25.0235C105.249 25.0235 104.754 26.5322 104.641 27.5905H109.302Z" fill="black"/>
<path d="M120.674 17.9302H124.592V25.6313H124.66C125.042 24.9558 125.47 24.3478 125.853 23.7173L129.816 17.9302H134.658L128.893 25.3611L134.973 35.3817H130.357L126.078 27.8606L124.57 29.7071V35.4042H120.651V17.9527L120.674 17.9302Z" fill="black"/>
<path d="M148.484 28.8966C148.484 33.5353 145.196 35.652 141.796 35.652C138.396 35.652 135.243 33.22 135.243 29.1218C135.243 25.0235 137.945 22.4114 141.999 22.4114C146.052 22.4114 148.461 25.0685 148.461 28.8741L148.484 28.8966ZM139.319 29.0317C139.319 31.2159 140.22 32.8372 141.909 32.8372C143.597 32.8372 144.408 31.306 144.408 29.0317C144.408 26.7574 143.687 25.2261 141.909 25.2261C140.13 25.2261 139.319 27.1627 139.319 29.0317Z" fill="black"/>
<path d="M150.915 26.8699C150.915 25.001 150.87 23.785 150.803 22.7041H154.203L154.338 25.0235H154.451C155.104 23.177 156.657 22.4114 157.873 22.4114C159.089 22.4114 158.414 22.4114 158.707 22.4564V26.1494C158.414 26.1043 158.076 26.0368 157.648 26.0368C156.207 26.0368 155.216 26.8024 154.946 28.0184C154.901 28.2661 154.878 28.5813 154.878 28.8966V35.3142H150.938V26.8249L150.915 26.8699Z" fill="black"/>
<path d="M160.733 31.9139C161.454 32.3643 162.963 32.8822 164.133 32.8822C165.304 32.8822 165.822 32.4769 165.822 31.8239C165.822 31.1708 165.439 30.8556 163.953 30.3827C161.341 29.5045 160.328 28.0859 160.35 26.5772C160.35 24.2128 162.377 22.4338 165.507 22.4338C168.637 22.4338 168.299 22.7716 169.087 23.1544L168.389 25.8791C167.826 25.5638 166.723 25.1585 165.642 25.1585C164.561 25.1585 164.133 25.5413 164.133 26.1944C164.133 26.8474 164.629 27.0951 166.183 27.6355C168.592 28.4687 169.605 29.6846 169.628 31.5536C169.628 33.918 167.759 35.6519 164.133 35.6519C160.508 35.6519 161.003 35.2916 160.035 34.7737L160.733 31.959V31.9139Z" fill="black"/>
<path d="M33.7092 13.0889H22.4502V46.8659H33.7092V13.0889Z" fill="#D52B1E"/>
<path d="M44.9685 24.3479H11.1914V35.6069H44.9685V24.3479Z" fill="#D52B1E"/>
</g>
</g>
<defs>
<clipPath id="clip0_43_30061">
<rect width="181" height="60" fill="white"/>
</clipPath>
<clipPath id="clip1_43_30061">
<rect width="181" height="56.3852" fill="white" transform="translate(0 1.80737)"/>
</clipPath>
</defs>
</svg>
